/* XPM */
static char *result[] = {
/* columns rows colors chars-per-pixel */
"37 50 68 1 ",
"  c #72751B",
". c #79761F",
"X c #7C7621",
"o c #837625",
"O c #877927",
"+ c #8B7729",
"@ c #8E782B",
"# c #90772C",
"$ c #937A2E",
"% c #977A30",
"& c #9C7C32",
"* c #A27F35",
"= c #A58136",
"- c #A78038",
"; c #AB8439",
": c #B48C3C",
"> c #B88F3E",
", c #BC913E",
"< c #C49335",
"1 c #C2923A",
"2 c #C7983C",
"3 c #C99B3C",
"4 c #CDA13F",
"5 c #BE9440",
"6 c #C29741",
"7 c #C69A42",
"8 c #C99D44",
"9 c #CCA144",
"0 c #CCA34C",
"q c #D4AB46",
"w c #D0A749",
"e c #D3AC4B",
"r c #D6B04A",
"t c #D8B34D",
"y c #CEA553",
"u c #CFA758",
"i c #CFA859",
"p c #D1AB5C",
"a c #D6B053",
"s c #DAB552",
"d c #DCB955",
"f c #D7B35F",
"g c #DFBE58",
"h c #E0BE57",
"j c #E0BF59",
"k c #D4B067",
"l c #D6B56D",
"z c #D7B772",
"x c #DABA72",
"c c #DABC7D",
"v c #E4C55D",
"b c #E5C662",
"n c #E5C865",
"m c #EBCF63",
"M c #E6CA6A",
"N c #E3C779",
"B c #E4CA7E",
"V c #DDC184",
"C c #DFC58B",
"Z c #E1C785",
"A c #E8CF82",
"S c #E5CD89",
"D c #E9D184",
"F c #E9D289",
"G c #E4CD94",
"H c #E9D393",
"J c #E6D09A",
"K c #E8D39C",
/* pixels */
"                                     ",
"                                     ",
"                                     ",
"                                     ",
"                                     ",
"                                     ",
"                                     ",
"                                     ",
"               .                     ",
"            .o+%*===&$+o             ",
"          .@*5688888876:%O           ",
"         +*58888888888886:&o         ",
"       X%>88888888887888886;+.       ",
"      .&5888887<<<<<<2788888:#       ",
"      $688882<qhvvvvvd4<78888>+      ",
"     +58888<evvvvvvvvvvh428887;.     ",
"    o:88883jvvvbjsw8hvvvvt28888*     ",
"    *78882jvvvvjhmv96vvvvvt28881+X   ",
"   o>7882vvvvvvdve881gvvvvvr2888*X   ",
"   %7888rvvvvvvdd9881hvvvvbv98885+   ",
"  .;8883vvvvvvvd88881hvvvvvvh2888&X  ",
"  .,888tvvvvvvvd88881hbvvvvvv9888*X  ",
"  O8883vvvvvvvvd8888>hvvvvvvvt7885X  ",
"  +8889vvvvvvvvd88881hvvvvvvvg8885+  ",
"  @978wvvvvvvvvd88881hvvvvvvvv9886+  ",
"  $898avvvvvvvvd88881hvvvvvvvn0886+  ",
"  $779kvvvvvvbvd88881gvvvvvvvn0975+  ",
"  $287fvvvvvvvvd88771gvvvvvvvn0875X  ",
"  +588yMvvvvvvvd8888>hvvvbvvvN888;X  ",
"  X:889Bvvvvvvvd88881gvvvvvvvz888&   ",
"  X%888lnvvvvbvd8888<hvvvvvvD0885X   ",
"   X5888Svvvvvvd8888>vvvvvvMx888=    ",
"    &888pSvvvvvd9777,vvvvvvZ8886%    ",
"    X5888zAvvvvv09963vvvvnHy888*XX   ",
"     #5888kHnvvvja9wvvvvMGy878:O     ",
"     X&6888uGDvvvvvvvvnHV98875@      ",
"      X&67888iCKHSAFHJcy8888:+       ",
"        %5888888yiii0887887:@        ",
"        Xo-68888888888997:$X         ",
"          X#*5788888885:&X           ",
"             X#%=====%+X             ",
"               X   X                 ",
"                                     ",
"                                     ",
"                                     ",
"                                     ",
"                                     ",
"                                     ",
"                                     ",
"                                     "
};
