/* XPM */
static char *result[] = {
/* columns rows colors chars-per-pixel */
"37 50 65 1 ",
"  c #4D2712",
". c #4E2812",
"X c #522B14",
"o c #532F18",
"O c #5A3117",
"+ c #56321A",
"@ c #5A351D",
"# c #5E391E",
"$ c #603A1F",
"% c #5B3720",
"& c #5E3A21",
"* c #623D23",
"= c #72751B",
"- c #644126",
"; c #664529",
": c #69462A",
"> c #67482B",
", c #6A4A2D",
"< c #6C4E31",
"1 c #644F3C",
"2 c #704E31",
"3 c #6E5234",
"4 c #66523F",
"5 c #6C563E",
"6 c #715537",
"7 c #765837",
"8 c #735738",
"9 c #755A3A",
"0 c #795E3E",
"q c #7A603F",
"w c #675240",
"e c #695642",
"r c #6C5A46",
"t c #6D5C48",
"y c #715C45",
"u c #7A5F40",
"i c #715E48",
"p c #7D6241",
"a c #74624C",
"s c #756551",
"d c #786751",
"f c #7B6A55",
"g c #7E6E5A",
"h c #7F705B",
"j c #7F7262",
"k c #806545",
"l c #836947",
"z c #856B4B",
"x c #886E4E",
"c c #8A714F",
"v c #876E50",
"b c #886F51",
"n c #8C7455",
"m c #81715C",
"M c #907756",
"N c #907857",
"B c #947C5D",
"V c #847562",
"C c #867966",
"Z c #897B67",
"A c #8C7F6C",
"S c #977F61",
"D c #8E806C",
"F c #9A8365",
"G c #938574",
/* pixels */
"=============,2:22$22222=============",
"=========:::*cccxxOxxllx$-:$=========",
"=======,:MNN$cccxxOllxxlOp70**=======",
"=====**nMMNN$FFSMB$BBFBMO7pq97$$=====",
"====:l$xFFFF$7777l$0007k@MMMM7*2&====",
"===,xx*S7xlk*pp07p$07qpp-;-pun*33&===",
"==:zxB$77xkp$kpp7k:0qkpp::zuup-b36@==",
"==:lB0*7xkkk:p0kkk:7pppp,pppuu;uv3@==",
"=*un70*7xkkk:pp0qk:qkppp,ppupp;uqz3@=",
"=:n990-lkkkk,0pppp:pqppp,puuuu,pqqz%=",
":un999:kkkkk,kkuqk:qpppp,puppu<pq0x<@",
"*b9999:kukkk:00uqk:kppkp,pupqp<pqqqn+",
"*b9999,kkkzk:uk0qk:kkppp,qqqpy3qq00cO",
"%97799,kkp*k,uuuqk:lqkpp,q-q0p,qq000.",
"@@@$******G*<uuuqk:lpppp,-G**&&##@@@X",
"OggmmmmVVVvA*uuuqk:lpppk*GfCmhhhhhffX",
"+8yaaadfffffZ-uuqk:lppp-FffddapiairyX",
"Oyyaaadffffvo9uuqp:lppppOfdddaaiia5rX",
"OXXoOXXoOogX699uqk:lkpkp,XdXXoXXoXo.X",
"o;--::&>,,o<2uuuqp:lpppp,,O>,,>>>>>,X",
"o77879&upp,<<uuu0p:zqppp>p>pqq388888X",
"o88998-pp003<u9u0p;ckqpp>pqqqq388888X",
"X78878,u9u0,<00u0p:zqqpq>aqqqq388888X",
"o88888>p00u><u990q:zqppp,q8qqq<88888.",
"X88888:u0900<99u9p:xppqq3p0000336668X",
"X88888,u9099<99u9p;lqqqq,p708q336663X",
"X88888,u9999<999@&$*$qqq3p0000<36665.",
"X88888,p9978<99&DAAAZ#0q3p0080336363X",
"X68688<u7888<97&aaasa@qq3p800q>33333.",
"X86666,u8888<99#aaXaa#8q3p8088>33333.",
".65668<u8688<87XyyXttX08,q08q8;33333.",
".68838,u8388<87X55555.88,p8q88;33333.",
".66686,p35&6,98>..X..>88<q&qq8-33633.",
"X+++@@&&##D*,798>>@>>998<&D####@++++.",
" fffffmVVVfZ&88888-q9969*Dahhgffggsd.",
".5yyaaasadafZ#5986-5969&Dasaaittri54.",
" 55tyiaaadddX56888;68883.ssaatttyr55.",
" X..XX..XXa.-86686-68886-.t.....X....",
".$*--;@>:,.>-66666-66636->.>>;&>-***.",
" 33333@336>3-66666&63353-9>99q-><<<< ",
" <3<33&55335-56666+63333&qq889&<<<,< ",
" 33333-36333&36654o63636&885q9&<<<<< ",
" +@%%%&%#%#@@@oo  oooo++@%%%++++oo.  ",
" aaaasssssffssffjj jjggfsffssssssssa ",
" VCCjCCCCjjADDDDGG GGDDDDjDjjCCjjjjC ",
" 44444eeetterrttts sttttttrteer44414 ",
" 44444wwetetettets sttttrtrrwee41111 ",
" 1444eeewttetettts stttttterreww4111 ",
" 441weeeererrrrtts.stttttrrreeeee441 ",
"    ..  . ..  .   .  .....      ..   "
};
