/* XPM */
static char *result[] = {
/* columns rows colors chars-per-pixel */
"37 50 181 2 ",
"   c #280916",
".  c #2D0A19",
"X  c #340D1D",
"o  c #390D1F",
"O  c #20121C",
"+  c #391E19",
"@  c #39131D",
"#  c #3F251A",
"$  c #3F2B19",
"%  c #2C0922",
"&  c #29072F",
"*  c #2F0A2B",
"=  c #3B0F22",
"-  c #340C26",
";  c #351322",
":  c #3C1122",
">  c #32152D",
",  c #3B152D",
"<  c #3E1828",
"1  c #371C2B",
"2  c #2F0C35",
"3  c #2B0731",
"4  c #320936",
"5  c #36093A",
"6  c #3B0C3C",
"7  c #3B1337",
"8  c #351532",
"9  c #261A27",
"0  c #3C232B",
"q  c #3B2327",
"w  c #3F2531",
"e  c #30263A",
"r  c #3B343B",
"t  c #44261C",
"y  c #411325",
"u  c #561621",
"i  c #440E38",
"p  c #420E32",
"a  c #41242E",
"s  c #4E3E25",
"d  c #443028",
"f  c #493224",
"g  c #523F29",
"h  c #422235",
"j  c #492B34",
"k  c #432039",
"l  c #4C243C",
"z  c #422F3D",
"x  c #472A36",
"c  c #4D353C",
"v  c #413B38",
"b  c #45323E",
"n  c #573A3F",
"m  c #56393A",
"M  c #693E34",
"N  c #4F401A",
"B  c #57421E",
"V  c #5C4E1C",
"C  c #615A1B",
"Z  c #64601D",
"A  c #69671E",
"S  c #6D6E1C",
"D  c #706B1F",
"F  c #6E701D",
"G  c #72751B",
"H  c #78781C",
"J  c #78751C",
"K  c #544B27",
"L  c #5A5829",
"P  c #4D4938",
"I  c #494533",
"U  c #5F5F32",
"Y  c #595839",
"T  c #694D2E",
"R  c #605A20",
"E  c #60582F",
"W  c #695B28",
"Q  c #604135",
"!  c #68403B",
"~  c #644C39",
"^  c #754533",
"/  c #784632",
"(  c #7B4A34",
")  c #7D4C3D",
"_  c #6D5638",
"`  c #685F3E",
"'  c #7F5134",
"]  c #626225",
"[  c #6E6123",
"{  c #6B6D23",
"}  c #64652B",
"|  c #756B2C",
" . c #7B6625",
".. c #78732A",
"X. c #6C6A31",
"o. c #390F40",
"O. c #322943",
"+. c #362F49",
"@. c #3F3247",
"#. c #37304B",
"$. c #38314C",
"%. c #3C3652",
"&. c #3F3A57",
"*. c #430B45",
"=. c #490E44",
"-. c #4D0C4F",
";. c #491247",
":. c #461940",
">. c #491841",
",. c #521F43",
"<. c #4F3740",
"1. c #403B47",
"2. c #493842",
"3. c #44324A",
"4. c #423D4E",
"5. c #4C394B",
"6. c #473545",
"7. c #5A3D43",
"8. c #503542",
"9. c #423E53",
"0. c #4D3D56",
"q. c #473757",
"w. c #4C4948",
"e. c #49454C",
"r. c #504748",
"t. c #5E4349",
"y. c #5C4146",
"u. c #5F5B40",
"i. c #5E5648",
"p. c #5E525B",
"a. c #67454F",
"s. c #634A4B",
"d. c #704154",
"f. c #6D515D",
"g. c #7E5757",
"h. c #7D6442",
"j. c #4D4165",
"k. c #564A60",
"l. c #694968",
"z. c #921820",
"x. c #82252C",
"c. c #C52528",
"v. c #846F1D",
"b. c #897B1E",
"n. c #824E27",
"m. c #944A21",
"M. c #8B502F",
"N. c #9B552C",
"B. c #975327",
"V. c #8C5036",
"C. c #A95626",
"Z. c #A35C2B",
"A. c #AB5A26",
"S. c #BA5D22",
"D. c #976836",
"F. c #A76D2E",
"G. c #A6662D",
"H. c #B06127",
"J. c #BD6123",
"K. c #B76C29",
"L. c #BC6A26",
"P. c #BA7029",
"I. c #A36830",
"U. c #A76736",
"Y. c #C46C24",
"T. c #C06623",
"R. c #CA7526",
"E. c #CD7A26",
"W. c #C47629",
"Q. c #985841",
"!. c #8A6F56",
"~. c #99635A",
"^. c #875368",
"/. c #965F7F",
"(. c #8A801F",
"). c #9A8424",
"_. c #BB8728",
"`. c #CD8327",
"'. c #CF8E28",
"]. c #CB9128",
"[. c #9B6387",
/* pixels */
"G G G G G G G G G G G G G G G G G G G G G G G G G G G G G G G G G G G G G ",
"G G G G G G G G G G G G G C q K A G G G G G G G G G G G G G G G G G G G G ",
"G G G G G G G G G G G G G G K & > G G G G G G G G G G G G G G G G G G G G ",
"G G G G G G G G G G G G G R d 5 6 & > s R G G G G G G G G G G G G G G G G ",
"G G G G G G G G G G G G G f * 6 -.*.3 & & R G G F F G G G G G G G G G G G ",
"G G G G G G G G G G G ] 0 , : 7 -.-.*.3 & d G G G T G G G G G G G G G G G ",
"G G G G G G G G G G R > h x - : i -.*.-.*.o.3 R G x M F G G G G G G G G G ",
"G G G G G G G G F R d 8 x 7 *.X = -.-.-.-.-.-.g G W *.A G G G G G G G G G ",
"G G G G G G G G R & & h w -.*.o = -.-.-.-.-.-.>.R j -.s G G G G G G G G G ",
"G G G G G G G G s & 4 w w -.p = X -.-.-.-.-.-.-.6 6 *.s G G G G G G G G G ",
"G G G G G G G G 1 5 -.>.w ;.= X   -.-.-.-.-.-.-.-.-.4 s G G G G G G G G G ",
"G G G G G G G G a o.-.;.0 < = X . -.-.-.-.-.-.*.o.4 q A G G G G G G G G G ",
"G G G G G G G G h -.-.=.= = . % -.-.-.-.-.-.-.d R C G G G G G G G G G G G ",
"G G G G G G G G a *.=.= X X   - -.-.-.-.-.-.4 L J G G G G G G G G G G G G ",
"G G G G G G G G d 5 i X     u l -.-.-.-.-.;.1 G G G G G G G G G G G G G G ",
"G G G G G G G G R 3 *       c.k -.i *.-.-.,.S G G G G G G G G G G G G G G ",
"G G G G G G G G G I %     z.x.k -.*.-.-.*.I J G G G G G G G G G G G G G G ",
"G G G G G G G G G G ;     : y 7 *.& 4 o.8 E G G G G G G G G G G G G G G G ",
"G G G G G G G G G G A $   . < a 1 O.<.5.q.p.G G G G G G G G G G G G G G G ",
"G G G G G G G G G G G C     t G G e m.N.&.k.{ G G G G G G G G G G G G G G ",
"G G G G G G G G G G G C X   J G u.O B.R.&.j.X.G G G G G G G G G G G G G G ",
"G G G G G G G G G G G s X s J b.u.O ' n.c 0.s.D._.).G G G G G G G G G G G ",
"G G G G G G G G G G G C X G G _.`.O 9 l.a.U.W.Q.T G G G G G G G G G G G G ",
"G G G G G G G G G G G C . G G b.].s.q.s.F.Y.J.%.&.Y G G G G G G G G G G G ",
"G G G G G G G G G G G C . ..G v.T.].`.`.H.B.O.$.&.e.{ G G G G G G G G G G ",
"G G G G G G G G G G G | d.f.w.r.M.S.J.J.( ' c O.&.&.Y G G G G G G G G G G ",
"G G G G G G G G G G G | ^.0.9.&.&.n $.%.N.( O.v &.&.Y G G G G G G G G G G ",
"G G G G G G G G G G G C . O.O.O.O.1.&.O.~.q.O.G +.&.Y G G G G G G G G G G ",
"G G G G G G G G G G G [ X ] ] ] ] e.@.M &.+.r G #.&.@.G G G G G G G G G G ",
"G G G G G G G G G G G [ ; G G G } +.( ) %.O.] G +.9.$.G G G G G G G G G G ",
"G G G G G G G G G G G C . F G G v.N.( #.O._ ).G O.+.O.F G G G G G G G G G ",
"G G G G G G G G G G G V # G G G G H.^ n G.F.I.i.3.@.r G G G G G G G G G G ",
"G G G G G G G G G G G t C G G G L P.E.E.Y.t.&.!.[.^.S G G G G G G G G G G ",
"G G G G G G G G G G G t C G G G K E.Y.S.m &.&.!.[.` G G G G G G G G G G G ",
"G G G G G G G G G G G t C G G Z O.R.Z.Z.e %.&.G G G G G G G G G G G G G G ",
"G G G G G G G G G G G t C G G I O.S.7.M.O.%.+.G G G G G G G G G G G G G G ",
"G G G G G G G G G G G t C G G w.%.B.7.) O.+.e G G G G G G G G G G G G G G ",
"G G G G G G G G G G D t C G G w.9.^ 7.%.E.E.J.{ G G G G G G G G G G G G G ",
"G G G G G G G G G G T y C G G w.&.C.t.+.R.T.M P G G G G G G G G G G G G G ",
"G G G G G G G G G G T @ C G G w.%.N.5.O.Y.C.6.&.G G G G G G G G G G G G G ",
"G G G G G G G G G G B X C G G w.@.Q.#.( N.z $.&.w.F G G G G G G G G G G G ",
"G G G G G G G G G G B @ Z G { @.O.M 6.N.z O.O.&.9.} G G G G G G G G G G G ",
"G G G G G G G G G G B t G G } $.O.K.M.r O.O.%.&.&.9.} G G G G G G G G G G ",
"G G G G G G G G G G B t G G ] z N.B.z O.O.+.&.&.&.&.w.G G G G G G G G G G ",
"G G G G G G G G G G B # G G L.L.M e O.O.O.O.&.&.&.&.&.{ G G G G G G G G G ",
"G G G G G G G G G G B # G G  .c O.O.O.+.%.%.%.&.&.&.&.Y G G G G G G G G G ",
"G G G G G G G G G G B # G G ] e O.+.%.&.&.&.+.+.O.%.&.w.{ G G G G G G G G ",
"G G G G G G G G G G . C G G ] O.O.O.O.O.+.%.%.+.O.O.$.O.L G G G G G G G G ",
"G G G G G G G G G G C S G G F ] ] ] ] ] ] ] ] ] ] ] ] ] ] G G G G G G G G ",
"G G G G G G G G G G G G G G G G G G G G G G G G G G G G G G G G G G G G G "
};
