/* XPM */
static char *_cb1c3854414418ee07df4980020d348v1qiUBpoBpBl0qAT[] = {
/* columns rows colors chars-per-pixel */
"37 50 128 2 ",
"   c black",
".  c #020202",
"X  c gray8",
"o  c #151515",
"O  c #0B0B0B",
"+  c #040404",
"@  c #070707",
"#  c gray84",
"$  c #EAEAEA",
"%  c gray46",
"&  c #272727",
"*  c #4E4E4E",
"=  c #3E3E3E",
"-  c #776E6E",
";  c #F39292",
":  c #FF9595",
">  c #B58080",
",  c #626262",
"<  c gray7",
"1  c gray28",
"2  c #837272",
"3  c #9C7979",
"4  c #090909",
"5  c #959595",
"6  c #FFEAEA",
"7  c #FF1515",
"8  c red",
"9  c #FF8080",
"0  c gray17",
"q  c #AAAAAA",
"w  c #FFD5D5",
"e  c #FFAAAA",
"r  c #B80000",
"t  c #2B0000",
"y  c #4E0000",
"u  c #FB3939",
"i  c #DCB8B8",
"p  c #D5D5D5",
"a  c #F16363",
"s  c #FF2424",
"d  c #FF0404",
"f  c #AA0000",
"g  c #200000",
"h  c #FF1212",
"j  c #FFB1B1",
"k  c #FF4747",
"l  c #C00000",
"z  c #DC0000",
"x  c #950000",
"c  c #E40000",
"v  c #FEEAEA",
"b  c #F91515",
"n  c #FA0000",
"m  c #FC0000",
"M  c #F30000",
"N  c #FBAAAA",
"B  c #F9EAEA",
"V  c #B81515",
"C  c #CB0000",
"Z  c #DF0000",
"A  c #7D0000",
"S  c #D4AAAA",
"D  c gray34",
"F  c #9A9292",
"G  c #C96E6E",
"H  c #D24747",
"J  c #F60000",
"K  c #FA5151",
"L  c #DB5555",
"P  c #AC6B6B",
"I  c #9D8787",
"U  c #898989",
"Y  c #0C0C0C",
"T  c #E3AAAA",
"R  c #EA0000",
"E  c #F3C1C1",
"W  c #DACCCC",
"Q  c white",
"!  c #555555",
"~  c #6D6363",
"^  c #F1D5D5",
"/  c #C73535",
"(  c #C40000",
")  c #F96161",
"_  c #DECBCB",
"`  c #BBB6B6",
"'  c #0E0E0E",
"]  c #C05555",
"[  c #C22424",
"{  c #F10000",
"}  c #F80000",
"|  c #FF0606",
" . c #FD2323",
".. c #EC7A7A",
"X. c #E1D5D5",
"o. c #CBC5C5",
"O. c #A0A0A0",
"+. c #C0C0C0",
"@. c #D50000",
"#. c #FD2727",
"$. c #E6DDDD",
"%. c #505050",
"&. c #7D7272",
"*. c #DC9595",
"=. c #D54B4B",
"-. c #B20000",
";. c #AC0000",
":. c #E86C6C",
">. c #E98787",
",. c #DCC6C6",
"<. c #A29B9B",
"1. c gray42",
"2. c #CE8080",
"3. c #AD1515",
"4. c #861515",
"5. c #7D1515",
"6. c #D3B5B5",
"7. c #DBCDCD",
"8. c #E3DFDF",
"9. c #878080",
"0. c #F8EAEA",
"q. c #F4EAEA",
"w. c #F3EAEA",
"e. c #F5EFEF",
"r. c #D0CDCD",
"t. c #282828",
"y. c #4B4B4B",
"u. c #7C7C7C",
/* pixels */
"                                                                          ",
"                                                                          ",
"                                                                          ",
"                                                                          ",
"                                                                          ",
"                                                                          ",
"                                                                          ",
"                                                                          ",
"                                                                          ",
"                                                                          ",
"                                                                          ",
"                                                                          ",
"                                                                          ",
"                                                                          ",
"                                                                          ",
"                                                                          ",
"                . X o o o o o O           + X o o o o o @                 ",
"                X # $ $ $ $ $ %           & # $ $ $ $ $ *                 ",
"              = - ; : : : : : > , <     1 2 ; : : : : : 3 , 4             ",
"              5 6 7 8 8 8 8 8 9 $ 0     q w 7 8 8 8 8 8 e $ o             ",
"              5 6 7 r t t y 8 7 u i p p a s d 8 8 8 8 8 e $ o             ",
"              5 6 7 f   g y 8 8 h j w w k 8 8 8 8 8 8 8 e $ o             ",
"              5 6 7 f   l 8 8 8 8 8 8 8 8 8 8 8 8 8 8 8 e $ o             ",
"              5 6 7 z x c 8 8 8 8 8 8 8 8 8 8 8 8 8 8 8 e $ o             ",
"              5 v b n 8 8 8 8 8 8 8 8 8 8 8 8 8 8 8 m M N $ o             ",
"              5 B V C 8 8 8 8 8 8 8 8 8 8 8 8 8 8 8 Z A S $ o             ",
"              D F G H z J 8 8 8 8 8 8 8 8 8 8 8 8 K L P I U Y             ",
"                o $ T f R 8 8 8 8 8 8 8 8 8 8 8 8 E W Q !                 ",
"                + & ~ ^ / ( 8 8 8 8 8 8 8 8 8 ) E _ ` 0 '                 ",
"                    1 p ] [ { } 8 8 8 8 8 |  ...X.o.O.                    ",
"                        +.^ f @.8 8 8 8 8 #.^ $.Q 0                       ",
"                        %.&.*.=.C -.;.;.:.>.,.<.1.<                       ",
"                          & $ 2.3.4.5.5.6.7.8.%                           ",
"                          + o 9.0.q.w.w.e.r.t.O                           ",
"                              y.5 5 5 5 5 u.Y                             ",
"                                                                          ",
"                                                                          ",
"                                                                          ",
"                                                                          ",
"                                                                          ",
"                                                                          ",
"                                                                          ",
"                                                                          ",
"                                                                          ",
"                                                                          ",
"                                                                          ",
"                                                                          ",
"                                                                          ",
"                                                                          ",
"                                                                          "
};
