/* XPM */
static char *bb08208da38640d2a2265cedeec8fbf1DAnRNEa62eHIItlM[] = {
/* columns rows colors chars-per-pixel */
"149 50 239 2 ",
"   c #000000",
".  c #0B0B0B",
"X  c #090707",
"o  c #140D0D",
"O  c #0F0F10",
"+  c #110F10",
"@  c #1C0F10",
"#  c #131314",
"$  c #16161A",
"%  c #1B1A1C",
"&  c #191617",
"*  c #2B1617",
"=  c #331819",
"-  c #2A0E0E",
";  c #1D1D22",
":  c #201F23",
">  c #3B1427",
",  c #232225",
"<  c #292624",
"1  c #25252A",
"2  c #28272C",
"3  c #27282A",
"4  c #2A2A2D",
"5  c #292825",
"6  c #362929",
"7  c #35322F",
"8  c #2D2C32",
"9  c #2C2938",
"0  c #312F34",
"q  c #302E3E",
"w  c #323135",
"e  c #36343A",
"r  c #39373C",
"t  c #3B393E",
"y  c #3C3432",
"u  c #2F3032",
"i  c #1F2020",
"p  c #541219",
"a  c #6E121A",
"s  c #71201F",
"d  c #6B0C22",
"f  c #770E22",
"g  c #6E172C",
"h  c #453839",
"j  c #50322F",
"k  c #762738",
"l  c #6C3235",
"z  c #591C29",
"x  c #49433D",
"c  c #534739",
"v  c #7A6C30",
"b  c #353344",
"n  c #3D3B41",
"m  c #3A374A",
"M  c #3C3A4D",
"N  c #383546",
"B  c #3F3C51",
"V  c #312E40",
"C  c #413F43",
"Z  c #473C46",
"A  c #403D53",
"S  c #5D384B",
"D  c #743B47",
"F  c #454246",
"G  c #4B464A",
"H  c #4D494C",
"J  c #4A4546",
"K  c #554A49",
"L  c #59534E",
"P  c #444156",
"I  c #4D4A5C",
"U  c #4A4756",
"Y  c #524E52",
"T  c #5A4950",
"R  c #585458",
"E  c #635856",
"W  c #745D54",
"Q  c #6E4C4D",
"!  c #71645B",
"~  c #5C5A62",
"^  c #6B5163",
"/  c #676468",
"(  c #756A65",
")  c #6D6C72",
"_  c #716E76",
"`  c #7A7C7E",
"'  c #76767A",
"]  c #79736C",
"[  c #810F1E",
"{  c #8B101D",
"}  c #9C131A",
"|  c #97161A",
" . c #AC1518",
".. c #A8171A",
"X. c #B51616",
"o. c #B3191A",
"O. c #851120",
"+. c #942222",
"@. c #8A2E34",
"#. c #B42728",
"$. c #B93938",
"%. c #A73237",
"&. c #8B652F",
"*. c #903A48",
"=. c #B73B45",
"-. c #AB3543",
";. c #C03D48",
":. c #874857",
">. c #91494E",
",. c #A9474A",
"<. c #B35254",
"1. c #B55D61",
"2. c #866965",
"3. c #85746D",
"4. c #857B76",
"5. c #927676",
"6. c #B36D71",
"7. c #9B605E",
"8. c #C7474B",
"9. c #D5474D",
"0. c #C64D51",
"q. c #DC4B51",
"w. c #C85758",
"e. c #D85456",
"r. c #E44E52",
"t. c #E84F54",
"y. c #ED5255",
"u. c #ED5356",
"i. c #EC5255",
"p. c #EE5659",
"a. c #E85558",
"s. c #F05A5C",
"d. c #D2706C",
"f. c #F36263",
"g. c #EB6264",
"h. c #E25F60",
"j. c #8D837A",
"k. c #97867B",
"l. c #A78779",
"z. c #AF826F",
"x. c #D38675",
"c. c #7B7B82",
"v. c #827E86",
"b. c #B8779E",
"n. c #C26095",
"m. c #7E8284",
"M. c #808487",
"N. c #818688",
"B. c #8B8888",
"V. c #948883",
"C. c #9A948B",
"Z. c #938C95",
"A. c #9A969A",
"S. c #8C8992",
"D. c #A6978B",
"F. c #B6968A",
"G. c #A89997",
"H. c #B18F8C",
"J. c #B7A89A",
"K. c #ACA495",
"L. c #9C98A5",
"P. c #A49CA4",
"I. c #BD9EAB",
"U. c #A9A5AB",
"Y. c #B8AAA7",
"T. c #BDB3A5",
"R. c #ABA8B3",
"E. c #B7B3B9",
"W. c #C89687",
"Q. c #D39289",
"!. c #FE9E84",
"~. c #E29A84",
"^. c #D6A999",
"/. c #C5B29E",
"(. c #CEA894",
"). c #FCA58A",
"_. c #FAAD92",
"`. c #FCB797",
"'. c #E9B296",
"]. c #C797B3",
"[. c #C5BBAC",
"{. c #CBBCAC",
"}. c #C7B6A5",
"|. c #D6B9A8",
" X c #CABEB1",
".X c #C3B8B8",
"XX c #D1ADB2",
"oX c #ECBCA8",
"OX c #D3C2AD",
"+X c #DCC4AD",
"@X c #CEC5B7",
"#X c #D4C4B3",
"$X c #DDCDBB",
"%X c #D6CBB8",
"&X c #DBD2BC",
"*X c #D6D0BA",
"=X c #C6C2AB",
"-X c #FECDAC",
";X c #F9C5A8",
":X c #E7CBB4",
">X c #E1D1BE",
",X c #ECD3B9",
"<X c #FED3B4",
"1X c #FCDBBC",
"2X c #F4D5B9",
"3X c #F0C8AC",
"4X c #B3B1C3",
"5X c #C6B5C1",
"6X c #C9C4C8",
"7X c #D9C9C5",
"8X c #DDD4C2",
"9X c #C8C8D9",
"0X c #DCD8D8",
"qX c #E4D5C3",
"wX c #E5DBC5",
"eX c #F6DDC3",
"rX c #E7D8D5",
"tX c #E6CECD",
"yX c #ECE5CC",
"uX c #E8E2CB",
"iX c #FDE2C4",
"pX c #FCEBCD",
"aX c #F5E6CB",
"sX c #EDE6D5",
"dX c #F4EDD2",
"fX c #FCEED1",
"gX c #F4E9DA",
"hX c #FDF2D5",
"jX c #FDF6D9",
"kX c #FFF9DC",
"lX c #F6F0D6",
"zX c #E8E4EA",
"xX c #F3E9E5",
"cX c #FEFBED",
"vX c #FBF6E2",
"bX c #FEFFFF",
"nX c #F6F5F6",
"mX c #EDEDF2",
"MX c #E7DDE0",
/* pixels */
"                                                                                                                                                                                                                                                            X # O $ O     X O                             ",
"                          X * l @.>.,.,.,.@.j o                                                         X . O # % $ O .                                                           X X # # # # # # # X X                                               X . O % q V V V V M b 2 $ O .                       ",
"                        o ,.a.u.y.y.t.i.i.y.y.0.j                                                     . . X           X # X                                                     . # X               X % .                                             O 8 m B B A A A A B B A P e ; X                     ",
"                      j w.y.i.i.y.y.y.i.i.i.i.y.i.>.X                                               . X             . X   X X                                                 # #                 .     . #                                           % M A A A A A A A A A A A B 2 X                     ",
"                    j 9.y.t.i.i.y.y.y.y.y.i.y.y.u.a.@.                                            .                   %     X X                                             , & # X               # .     X %                                       8 P B A B A A A A A A A A A B A M .                   ",
"                  * 8.t.y.i.q.i.y.y.y.y.i.r.y.y.r.a.a.j                                         X                             , X                                         & r % 1                         # # .                                 X e m B B A m B A B m B B m A A B B b M #                 ",
"                * >.t.y.y.r.t.y.y.y.y.y.i.t.t.y.r.q.y.w.@                                       X     X                       % %                                       , R . 2   .                         , # X                             X 1 8 m B B B B B B m B A A m A A m B B 9 8 O               ",
"              X l ,.y.y.t.r.u.p.y.y.y.y.i.i.i.y.y.8.y.s.l                                     X     # +     X             % X   1 X                                   O R 5 # ,   ,     X             O #   # % .                             X . b B P B m B P B B B A A A A P B m B B $ +               ",
"              < l i.p.p.a.p.p.p.y.y.s.f.p.f.f.s.s.i.i.u.<.X                                         2 X   6 h     X   .   # ,   # %                                   u i   , # # #   + K               4     4 $                               ; B A P A A I P P A P A I P P P P m M A N X               ",
"              & *.y.f.s.f.p.s.p.y.p.s.f.r.i.y.p.f.s.s.s.e.j                                 X .     e   . l.W   . %   +   . ,   X , X                               X $ .   i X 0 X   K W.  X $         % .   & & O                           . N B I P I U I I I I I A I I P P I P P A M ;               ",
"              @ 0.i.s.p.p.y.y.t.y.y.r.0.9.e.y.y.y.y.p.f.e.k                                   4   % G X R pXk.o e h   #   X ,     O                                   X . . & X G # 2 |.,X, $ Y         $ +   % $ +                           r b B I B P A A A A A A A B A A A P P I I m M .             ",
"              = e.r.a.i.t.t.r.q.y.i.8.h.,.Q.e.a.i.i.y.a.8.l                               X # 4   # R e T.kXK.% Y W 5 X # X ,     # X                                 O t u & . ~ . V.aXfXw N /   X     # #   % % #                         X , e B P B A A A A m B A B m B B B A A A P M , $             ",
"              l ,.t.y.t.r.9.%.,.9.0.1.(.6.+X1.$.q.t.y.r.=.j                               X F $   % / B.dXjX{.t ) k.W X G X 2       %                                 1 v.n O   ' G 8XkXkXH Y c.# $     # #   , w #                           $ q A A m A A B m V B A b A V m m B B A A m 2               ",
"            X >.%.9.y.;.=.8.=.y.h.W.^.|.eXjX3Xw.;.=.r.9.@..                             . C M..   < S.T.wXuXqXv.v.}.F.C.Z.Z.' X     G O                             X F A.R   o c.A.uXwXaXK.' Z.2 % X   # ,   , H 7                           ; N B B V A M 9 1 : A m V A 9 V : V b B M N 8               ",
"            = @ @.=.;.;.%.<.8.0.,XW.fXeXkXkXhX^.w.;.;.;.z                               i i G.%   K U.dXkXkXlXJ.P.@XfX$X.XE.5XO   % 1 w X                           < < S.Y . y B.7XkXkXkX>XP.Z.F * O   . t X # _ H                           X : b m q B Z V Z Z A 9 9 Z 6 ( e 9 9 q m 9 $               ",
"            X   l @.;.=.*.D S T J.fXvXvXjX}./ ( 2.,.-.-.=                               X # .Xt   5.Y.kXkXkXkX$XP.6XvXaX7X}..X% . r i .                             X & ' _ % K G.%X=XdXkXpXI.G.~ 2 i X . Y $ 1 M.F                             $ 9 V V I v.G.J.5.b 1 : Q v.qXY.3.q : q 3 .               ",
"                * W 1.-.D L.^ S 6XkXkXkXjXT.^ S L.2.$.^.y                                 R 5X) X @X8X&X&XlXkXyXE.*XjXdX*X%X:XF , Z./ #                               # Y Y 4 E k./ > T @XjX>XY.H.n H $ . ~ 5 , / 8                             X t t w B.R.Z.G.8XU ; 6 D. XG.P.E.3.9 l.7 X               ",
"                # L ~.>.h rX].n.rXT.uXyXT.rX5X]..XS 6.3Xc                               # ` R.A.r =XJ.K.K.D.aXkXdXyXdXj.J.C.T.G.V.T.' w                               # , w H J K 6Xb.b.@X@XdX%XJ.E v.: . R 3 4 h 2                               ] ! E 6XxX].XXxXJ.J D.rXzX].].mXG.2.3XK                 ",
"                  i OX(.W vXsXrXkX@Xk.C.8XkXgXrXrX5.~.*X5                                 $ Y D.J.T.lXkXkXlXjXjXfXkXjXjXkXkXyXJ.|.G.` ,                                 # w / Y k.vXqXrXvXK.C.] eXG.v.H % ~ 3 7 5 ,                               x %X/.xXnXxXxXcXwXT.wXgXcXxXMXcXY.W.&X7                 ",
"                    ( oX/.wXkXkXjX/.3XlX#XjXjXkX&X+X3XL                                   .   4 OXJ.kXkXkXkXkXiXaXkXkXkXkXkXuX(.K.5 4 i                                 X + ' ] D.lXkXkXkXJ.2XqXwXwXH.' t / e i X .                                 D.oXlXcXcXcXcX>X3XkXwXcXcXcXcX[.'.( X                 ",
"                      h F.yX&X*X*XjXeXvXdX*X%X&XdXx.h                                           * l.hXkXkXkXkXiXyXkXkXkXkXkXqX2.&                                         . Z.' :X&X*X%X%XfX2XkX8X*X#XH.R ) n 1                                     X j.(.wXgXrX8XfX,XkXaX8XuXdX8XF.!                     ",
"                        l pXkXkXjXjXeXpXkXkXkXkXyXD                                               Y &XkXkXkXkXkXhXjXkXkXjXjX=X.                                           % R.v.Y.jXkXjXkXkXjXkXvXkXjX,Xc.R Y /                                     X . ! yXyXyXdXkXpXkXkXdXyXyX,Xx .                     ",
"                        * ^.kXjXkXeXx.d.dXkXkXjX|.*                                               C K.hXkXkXuXnXcXgXlXkXkXwX4.#                                           8 E.S.6XyXkXkXkXkXkXkXkXkXkXpXA./ ~ P.#                                       5 OXkXkXkXkXkXkXkXkXkXkX=X.                       ",
"                        @ >.|.jXkX,X_._.eXkXkX|.j X                                                 _ [.lXkXlXvXlXlXjXkXhXG.R                                             Y A.Z.6XE.dXkXkXdXpXdXhXkXkX%XL./ _ P.4                                         x jXkXkXdXfXlXlXkXkX,X5             X           ",
"                          6 k F.dXjX-X-XjXlX^.:.h X                                               X 2 R W fXvXkXjXjXkXpX! h ,                                           X H ` L.6XU.P.>XjXjXkXkXkXfXXXZ.L.c.Z.c.2                                           K OXjXjXjXkXkXhXJ.<                           ",
"                          , e Z ( K.=X%XOX6.Q 0 r .                                                   + * ~.2XkXjXhX3Xx.= &                                             # u S.U.E.E.L.W.oXhXkXkXeX_.G.P.U.) c.Z.i                                             W ;XjXkXkXfX`.Q                             ",
"                        2 : , t t C C C t t n n w %                                                 K g d d.!._.-X`.`.x.f d S                                           # % L.E.E.4XL.F.!.!.`.oX).!.G.R.Z.H : U ,                                             j x.`.<X<X).).c                             ",
"                    X $ 8 n 0 1 w r t t t r 8 $ # # % X                                             5.g d x.).!.`.x.`.x.d k 2.X                                           3 ) Y.0XS.4X]._.!.).)._.'.R.R./ X @ $ X                                           . j _._.x.x._._.c X                           ",
"                  X 2 , ; r n n r t t t n r e 0 w w 1 $ % X                                       % *.k k '.1X`._.`.`.x.k D :.%                                         X w w E.zXR ) Z.T.F._._.F.K.m.R 8 . # i X                                         # 4 W <X`.`.`.`.`.W 6 # X                       ",
"                . $ r ; $ ; 8 e t t n n n r 8 8 n n $ $ 8 ,                                       0 k >.^.<XhXhX-X;X`.`.).>.D 6                                         X . G 6XU.n n n n ` ,X3X_ 4 3 3 1 # %                                           i u W '.iXhX1X`.`.`.'.Q 3 #                       ",
"            2 2 $ 8 9 ; $ : 1 8 1 ; , 1 : 2 b n n 2 $ $ 8 n 2 #                             @ N c.:.k l.hXiXfXhXhXpX<X-X;X6.D :.S.~ $                                   X $ G H w e t n n c.7X7Xc.n e 4 4 4 u i # .                               # i u t C J.pXiXhXhXfX1X-X;Xz.4 4 1 % #                 ",
"        # < n e 1 t 8 $ $ $ 2 r e 0 8 8 e t n w 2 $ $ ; 2 n t e 0 % X             X X . . o * l 6.D k |.hXpXpXpXpX1X<X-X<X^.*.k 6.D * o # X X X                 X # % 4 e t t t t n n n n / 5XE.~ t t t t e e e w 8 2 ; + X               . # , 8 e C t t C OXhXpXfXpXiX1X-X;X(.t r e w w 4 1 # X X       ",
"    X ( J.2.t t e t h : $ + 1 n n n n n n n n e 3 ; u # 1 n n n n F E o         X + . = a | X.X.#...@.:XiXiX1X<X<X-X-X;X;X'.7. .o.X.....s = X + .             3 r n n n n n n n n n n n n R 9Xm.n n n n n n n n n n C n n e 1         $ w t n n n n t n n n ,XiX1X1X1X<X-X;X-X'.t n C t n n n t t w i     ",
"  y }.wX%XE C t n n L 2.y $ $ ; e N n n n n N u u e 1 e h n n n n n k.%XR   . + @ a +.X.X.X.X.X.X.X.%.^.1XiXiX1X<X<XiX1X1XoX1.X.X.X.X.X.X.o...a - # X     & t n n C n n n n n n n n n n n U R.) n n n n n n n n n n n n n n C e $ + w t n n n n n t n n n C ,X1XiX1X<X-X1X1X1X:XC t n n t n n n n n n w # ",
"3 J.qXqX#XY n q t n T J.%X) b $ # ; 1 3 3 ; $ 3 r w x D.F n n n t n 5.qX*X, * p X.X.X.X.X.X.X.X.X.X.$.<.x.pXpXhXkXhXpXiX'.,.,.X.X.X.X.X.X.X.X.X.X.a *   % e n n n n n n n n n n n n n n n n m.I n n n n n n n n n n n n n n n n t t n n n n n n n t n n t F &X,XiXfXjXkXpXpX,X&XF t n n n n n n n n n n n ",
"L %XqXqX XY n : e n T J.qXR.4XL.b # ; u u u q t n ( #XOXK n n t e t j.qX8X( - | X.X.X.X.X.X.X.X.X.X.=.XX0.x.pXjXkXjXjXx.$.].1.X.X.X.X.X.X.X.X.X.X.+.* . , t n n n n n n n n n n n n n n n n Y C n n n n n n n n n n n n n n n n t t n n n n n n n e n t t J }.8X>XjXkXkXhX,X>X}.G n t n e n n n n n n n n ",
"] qXqXqX[.G n ; 8 t G J.qX` A.nXmXU.~ b u b H ~ R [.qX XK C n n w 2 V.qXqXD.= X.X.X.X.X.X.X.X.X.X.X.$.MXnXw.8.~.'.x.$.w.xXMX<.X.X.X.X.X.X.X.X.X.X.X.p . w t t n n n n n n n n n n n n n C t u n n n n n n n n n n n n n n n n n t t t n n n n n n e e n n J OX#XqX>XeXeX>XqXOX|.H t n e e n n n n n n n t ",
"j.wX$XqX[.Z n 2 1 2 F J.qX4.` U.nXbXmXzX9X4XL.m./ T.qX#XT n n n w $ 4.$XqXJ.s X.X.X.X.X.X.X.X.X.X.X.#.tXbXnXXX$.#.0.|.bXbXrX=.X.X.X.X.X.X.X.X.X.X.X.s . e n t n n n n n n n n n n n n n t r w n n n n n n n n n n n n n n n n t t n n n n n n n n n n n n H qXqXqXqXqX>XqXqXqXqXL t n n t r n n n n n n n ",
"D.qXqX8XT.n n w 2 ; t D.wXB.' m.L.0XmXnX9Xm.m.m.' [.wX XH n n n r $ 4.8XwXJ.s o.X.X.X.X.X.X.X.X.X.X.#.7XbXbXnXMXrXmXbXbXbX7X$.X.X.X.X.X.X.X.X.X.X.X.s o n n n t n n n n n n n n n n n n C e t x n n n n n n n n n n n n n n n n t n t n n n n n r n n n h K qXqXqXqXqXOX$XqXqXqXR C n n n t n n n n n t n ",
"D.wXqX%XJ.n n n 0 ; e V.wXB.m.m.m.m.R.9Xm.m.m.m.m.T.wX[.H n n n n $ j.8XqXJ.+.o.X.X.X.X.X.X.X.X.X.X.X.XXbXbXbXbXnXmXbXbXbXtX$.X.X.X.X.X.X.X.X. .X.X.+.# t n n t n n n n n n n n n n n n t r C x n n n n n n n n n n n n n n t t t C n t n n n n t n n n n H qXqXqXqXqX>X#XqXqXqXR h n n n r n n n n n n n ",
"D.qXqX>X3.n n n n 2 8 4.qXC.m.m.N.m.m.m.m.N.m.S.m. XqX[.G n n n n % 5.{.qXK.+.X.X.|  .X.X.X.X.X.X.X.X.Q.bXbXbXbXbXnXbXbXbXoXo.X.X.X.X.X.X.X.X...}  .| # n n n t e n n n n n n n n n n n n n c c n n n n r r w w w r t n n t e e t n n t e n n n n t n n n G wXqXqXqXqX|.$XqXqXqXR n n n t t n n n e t e n ",
"V.qXqXOX2.n n n n e 1 ( qXS.N.m.N.N.m.m.m.N.m.m.m.=XqXT.C n n n n , j.qXqXC.+.X. .{ | X.X.X.X.X.X.X.X.w.nXbXbXbXbXbXbXbXbXXXX.X.X.X.X.X.X.X.| | ..X.+., e n t e u n n n n n n n n n n n n r v &.n n n n n n n r b t t n t w e t t n t t u n n n n t n n n F qXqXqXwXqXqX/.qXqXqXR n n n n n n n n e e t n ",
"] >XqX{.2.n t t n n 1 T 8XC.N.N.N.m.m.` ` ' m.m.m. XqXY.n n n n n 2 K.qX>XD.+. . .a a X.X.X.X.X.X.o.X.$.tXbXbXbXbXbXbXbXbXQ.X.X.X.X.X.X.X.X.a  .X.X.%.0 w n n w i e n n n n n n n n n n n r x x n n n n n n n n n n n n e u n n t n n e , e n n r n n n t F $XqXqXqXqXqX|.#XqXqXF n n n t t n n n 3 t t n ",
"! >XqXqXD.n t t n n e F &XB.N.N.m.m.m.) m.m.m.m.m.@XqXC.n n n e t C T.qXwXj.k X.X.| [ X.X.X.X.X.X.X.X.o.Q.bXbXbXbXbXbXbXbXw.X.X.X.X.X.X.X.X.| X.X.X.7.% 2 n n n u e n n n n n n n n n n n t n n n n n n n n n n n n n n e n n n t n n n 3 e n n n r n n n t $XqXqXqXqXqX&X%X>X>Xt n n n r n n n t r n n n ",
"] 8XqXqXY.t t w t n n H #XB.m.m.m.N.N.m.` m.N.N.m. XqX] n n n u t R {.wX:XL 6.X.X. .[  .X.X.X.X.X.X.X.X.$.nXbXbXbXbXbXbXxX=.X.X.X.X.X.X.X.X.| X.X.X.l X u n n n e e n n n n n n n n n n n t n n n n n n n n C n n n n n w n n n t n n n u e n n t e n n n n {.qXqXqXqXqXqXqXqXOXC n n n r n n n e n n n t ",
"K #XqXqXT.n t 8 r n n F [.B.m.N.N.N.N.N.m.N.N.N.c.[.qX/ n n r 3 r R  XqX/.h >.o.X. .[  .X.X.X.X.X.X.X.X.o.7XbXbXbXbXbXbX5X#.X.X.X.X.X.X.X.X.} X.X.} W X 3 n n n e u t n n n n n n n n n n t n n n n n n n n n n n n n n w n n n u n n n e w n n n w n n n n J.qXqXqXqXwXqXqXwXT.n n n r e n n n e n n n w ",
"y [.wXqX[.Z n 8 8 t n n 4.j.m.N.N.N.N.N.N.N.N.N.` [.qXG n n 9 , t R {.qX$XE 7.X.X. .[ [  .X.X.X.X.X.X.X.o.d.zXbXbXbXbXnX6.X.X.X.X.X.X.X.X.{ } X.X.o.:.# 3 n n n e 3 e n n n n n n n n n n r n n n n n n n n n n n n n t 8 n n n e n n n e 3 r n n e e n n h D.qXqXqXqXqXqXqXwXG.n n n e r n n t 4 n n n e ",
"y F.>XqXJ.F n e 3 8 n n F ` m.N.N.N.N.N.N.N.N.N.` {.%Xn n N 1 , t Y }.qX{.T 5.o.X. .f a { X.X.X.X.X.X. . .#.I.nXbXbXnX9X .X.X.X.X.X.X.X.} a | X. .X.Q # i t n n u 3 u t n n n n n n n n n e n n n n n n n n n n n n t 4 4 t t n u e n n w 3 4 r n n w n n t j.>XqXqXwXqXqXqX>Xj.n n n w t n r u 3 n t n r ",
"7 l.(.%XD.G C r 2 : r n n Y ' m.m.m.m.m.m.m.m.m.' =XT.n n b $ , t T F.{.F.Q 2.O...} d d d [ }  .X.X.X.X.X. .7.9XzXzX9Xn.}  .X.X.X.X. .{ d d d { } [ D $ ; w w N 4 3 3 3 w t n n n n n n n u n C n n n n n n n C t e 3 1 3 8 w e 3 4 e n u 3 3 3 w e 3 n n n ( =X>X&X>X>X>X>X+X! n n n u e e 4 , 3 u e e 4 ",
"7 l.H.F.l.K t t 2 ; 2 t n n R / ) ` ` m.m.` ` ) / =XC.n n 3 # 1 n L l.H.l.E ( d f f d p d d f { }  .X.X.X.X.@.4X9X9X4X-.X.X.X. . .{ f d d p d f [ d D o ; 3 3 u 3 , i 3 3 u w r n n n n n 8 v v n n n n n n t e u 3 3 % 3 5 u 5 , 3 4 w 4 , % 3 3 4 3 u n n E J.}.}././././.J.E t t w 2 4 3 3 % , 3 4 4 3 "
};
