/* XPM */
static char *_d863377ad094496bf4cb7ec7e652c57gXPy06jL2Fk8fqY8[] = {
/* columns rows colors chars-per-pixel */
"131 50 249 2 ",
"   c None",
".  c #000000",
"X  c #0C0B0C",
"o  c #090607",
"O  c #140C0B",
"+  c #0D0E11",
"@  c #141212",
"#  c #1B1A1C",
"$  c #1B1616",
"%  c #15100F",
"&  c #271A18",
"*  c #341C1B",
"=  c #2C0C0C",
"-  c #2E221E",
";  c #191B25",
":  c #171E3A",
">  c #201F22",
",  c #232224",
"<  c #25252A",
"1  c #2B2A2D",
"2  c #292829",
"3  c #392725",
"4  c #39352D",
"5  c #2D2D32",
"6  c #2A2836",
"7  c #312E38",
"8  c #333236",
"9  c #35343A",
"0  c #38373C",
"q  c #3B393E",
"w  c #3E3735",
"e  c #1C2131",
"r  c #5B0B1D",
"t  c #4F0F11",
"y  c #790E1D",
"u  c #721118",
"i  c #6C0C23",
"p  c #660C21",
"a  c #770E21",
"s  c #6A1629",
"d  c #482A28",
"f  c #562E2D",
"g  c #49322D",
"h  c #453734",
"j  c #5C3632",
"k  c #533130",
"l  c #653532",
"z  c #683A36",
"x  c #753C36",
"c  c #7A3F38",
"v  c #762836",
"b  c #5E1524",
"n  c #55453C",
"m  c #69423D",
"M  c #78423B",
"N  c #1A264E",
"B  c #192446",
"V  c #1D2B54",
"C  c #1A2750",
"Z  c #343243",
"A  c #3D3B41",
"S  c #3D3A4D",
"D  c #393648",
"F  c #24325C",
"G  c #2A3459",
"H  c #3E3C51",
"J  c #363E5F",
"K  c #232D4E",
"L  c #293663",
"P  c #2C3965",
"I  c #2E3C6B",
"U  c #273461",
"Y  c #303E6F",
"T  c #403D53",
"R  c #483C43",
"E  c #7C2A5F",
"W  c #3B4670",
"Q  c #43424B",
"!  c #484549",
"~  c #574748",
"^  c #444156",
"/  c #4A4857",
"(  c #554C53",
")  c #555459",
"_  c #5B5548",
"`  c #774A45",
"'  c #665958",
"]  c #72534B",
"[  c #595865",
"{  c #4A516F",
"}  c #625B65",
"|  c #68666A",
" . c #757477",
".. c #706C6F",
"X. c #786A5D",
"o. c #89111B",
"O. c #94121C",
"+. c #9C131A",
"@. c #9D1818",
"#. c #810F1D",
"$. c #AD1517",
"%. c #A31419",
"&. c #AB1518",
"*. c #A51619",
"=. c #B51616",
"-. c #B21C1B",
";. c #810F20",
":. c #B11B2A",
">. c #922B36",
",. c #B52425",
"<. c #B02E35",
"1. c #84443B",
"2. c #8A473D",
"3. c #8D493E",
"4. c #924A3F",
"5. c #843167",
"6. c #A03445",
"7. c #F7294E",
"8. c #F2274B",
"9. c #ED2C4E",
"0. c #DE324F",
"q. c #884C43",
"w. c #954C40",
"e. c #984F42",
"r. c #885449",
"t. c #9B5245",
"y. c #985448",
"u. c #915D51",
"i. c #A45A4B",
"p. c #B75759",
"a. c #AB4D53",
"s. c #856858",
"d. c #976759",
"f. c #937754",
"g. c #AB6958",
"h. c #8D716B",
"j. c #AB706B",
"k. c #AE5B60",
"l. c #C85054",
"z. c #EE4D6A",
"x. c #C36D70",
"c. c #D75A70",
"v. c #C41C37",
"b. c #908577",
"n. c #AD8A77",
"m. c #D99777",
"M. c #CB8C79",
"N. c #EA9678",
"B. c #E6AB7B",
"V. c #515C83",
"C. c #6C728E",
"Z. c #5E6889",
"A. c #8D7989",
"S. c #A57290",
"D. c #E9778B",
"F. c #D97887",
"G. c #7B839F",
"H. c #868589",
"J. c #939396",
"K. c #94918B",
"L. c #A9968F",
"P. c #B9A998",
"I. c #B1A58F",
"U. c #8E94AB",
"Y. c #AC9BA6",
"T. c #A7A6A8",
"R. c #A7A9BB",
"E. c #B9B6B8",
"W. c #B8ABAD",
"Q. c #9DA1AE",
"!. c #D7928E",
"~. c #FE9E84",
"^. c #E98C90",
"/. c #C7A489",
"(. c #D6B693",
"). c #D0AF93",
"_. c #E5A685",
"`. c #FCA589",
"'. c #FDAE91",
"]. c #EAB896",
"[. c #FCB697",
"{. c #EBB590",
"}. c #C497AD",
"|. c #ED98A8",
" X c #C6A9A8",
".X c #C7B8A7",
"XX c #D5B4AD",
"oX c #EBB3B2",
"OX c #EBC597",
"+X c #F5C79B",
"@X c #EFCC97",
"#X c #D8CBB5",
"$X c #D1C6B1",
"%X c #EAC9A7",
"&X c #FECAAA",
"*X c #F7C5A9",
"=X c #F9DAA5",
"-X c #F3CDB2",
";X c #E9D4BA",
":X c #FDDABC",
">X c #F8D5B7",
",X c #E9CCB4",
"<X c #FCE4AD",
"1X c #F6E3AD",
"2X c #FEEBB3",
"3X c #FDEDB9",
"4X c #FEF1BE",
"5X c #D9C89F",
"6X c #B8B9C9",
"7X c #B2B4C9",
"8X c #EEBAC4",
"9X c #CBBFCC",
"0X c #C6C5C7",
"qX c #D9C6CC",
"wX c #C7C8D4",
"eX c #D7D5DB",
"rX c #D7D2CF",
"tX c #E8C6C9",
"yX c #E8D9C6",
"uX c #F6DCC4",
"iX c #E7D4D5",
"pX c #F2CDD3",
"aX c #EDE4CA",
"sX c #FCE2C4",
"dX c #F8E8CB",
"fX c #FCEED1",
"gX c #F4E9D5",
"hX c #FDF2D5",
"jX c #FDF5D9",
"kX c #FFF9DC",
"lX c #F7F1D5",
"zX c #F4EACC",
"xX c #D6D6E3",
"cX c #D9D9E5",
"vX c #DBDCE7",
"bX c #F1DEE2",
"nX c #E4E4EB",
"mX c #ECECED",
"MX c #E8E5E5",
"NX c #F5EBE7",
"BX c #FEFBEC",
"VX c #FAF6E5",
"CX c #ECECF2",
"ZX c #E7E7F0",
"AX c #F3F3F5",
"SX c #F5F5F9",
"DX c #FEFEFE",
"FX c #FBF6F3",
"GX c #F7EFF0",
/* pixels */
". . . . . . . . . . . . . . . . . . . . . . . . . . . . . . . . . . . . . . . . . . . . . . . . . . . . . . . . . . . . . . . . . . . . . . . . . . . . . . . . . . . . . . . . . . . . . . . . . . . . . . . . . . . . . . . . . . . . . . . . . . . . . . . . . . . ",
". . . . . . . . . . . . . . . . . . . . . . . . . . . . . . . . . . . . . . . . . . . . . . . . . . . . . . . . . . . . . . . . . . . . . . . . . . . . . . . . . . . . . . . . . . . . . . . . . . . . . . . . . . . . . . . . . . . . . . . . . . . . . . . . . . . ",
". . . . . . . . . . . . . . . . . . . . . . . . . . . . . . . . . . . . . . . . . . . . . . . . . . . . . . . . . . . . . . . . . . . . . . . . . . . . . . . . . . . . . . . . . . . . . . . . . . . . . . . . . . . . . . . . . . . . . . . . . . . . . . . . . . . ",
". . . . . . . . . . . . . . . . . . . . . . . . . . . . . . . . . . . . . . . . . . . . . . . . . . . . . . . . . . . . . . . . . . . . . . . . . . . . . . . . . . . . . . . . . . . . . . . . . . . . . . . . . . . . . . . . . . . . . . . . . . . . . . . . . . . ",
". . . . . . . . . . . . . . . . . . . . . . . . . . . . . . . . . . . . . . . . . . . . . . . . . . . . . . . . . . . . . . . . . . . . . . . . . . . . . . . . . . . . . . . . . . . . . . . . . . . . . . . . . . . . . . . . . . . . . . . . . . . . . . . . . . . ",
". . . . . . . . . . . . . . . . . . . . . . . . . . . . . . . . . . . . . . . . . . . . . . . . . . . . . . . . . . . . . . . . . . . . . . . . . . . . . . . . . . . . . . . . . . . . . . . . . . . . . . . . . . . . . . . X o $ . . . X . . . . . . . . . . . . . ",
". . . . . . . . . . . . . . O * * - * % . . . . . . . . . . . . . . . . . . . . . . . . . + , ; 5 6 6 # o . . . . . . . . . . . . . . . . . . . . . . . . . $ * 3 j j g & . . . . . . . . . . . . . . . . . . . . . . . X @ n b.OX(.I.5X5XI.4 O o . . . . . . . . . . ",
". . . . . . . . . . . . O z 4.4.w.w.w.4.x & . . . . . . . . . . . . . . . . . . . . . @ S ^ / R 6 9 Q / T < . . . . . . . . . . . . . . . . . . . . . . - 2.t.t.4.4.4.4.y.M & o . . . . . . . . . . . . . . . . . . . o n (.2X2X2X2X2X2X2X2X2X(.4 . . . . . . . . . . ",
". . . . . . . . . . . * 4.4.4.e.e.4.4.4.4.4.f . . . . . . . . . . . . . . . . . . . < / D < e 6 Z 7 6 ; 6 T R o . . . . . . . . . . . . . . . . . . o j e.4.4.t.t.4.4.4.4.t.t.j . . . . . . . . . . . . . . . . . . . @ I.<X2X2X2X2X2X2X2X2X2X<Xb.% . . . . . . . . . ",
". . . . . . . . . . & w.4.4.4.4.4.e.4.4.4.4.4.d . . . . . . . . . . . . . . . . . < T 6 < D T T T T T H Z e 7 D . . . . . . . . . . . . . . . . . . k 4.2.4.4.4.4.4.4.4.4.4.4.4.g . . . . . . . . . . . . . . . . . 4 5X2X2X2X<X2X2X2X2X2X2X2X2X2X(.2 . . . . . . . . ",
". . . . . . . . . O q.4.4.3.4.4.2.4.4.4.4.4.3.4.& . . . . . . . . . . . . . . . > S < Z T T T T T T T T T T 6 7 5 . . . . . . . . . . . . . . . . k 2.1.4.4.4.4.4.4.4.4.4.4.t.4.w.& . . . . . . . . . . . . . . . 4 OX=X2X2X<X2X2X2X2X2X<X2X2X<X2X@X(.- . . . . . . . ",
". . . . . . . . . z 4.4.2.e.4.4.4.4.t.4.4.4.2.4.q.o . . . . . . . . . . . . . @ T 8 Z T S T T / T ^ T T T H T Z T X . . . . . . . . . . . . . . 3 ` 3.1.4.4.t.4.M w.>.3.4.4.4.4.1.r.. . . . . . . . . . . . . . o h (.<X2X<X<X2X2X2X2X2X2X<X2X2X1X2Xn.4 o . . . . . . ",
". . . . . . . . - t.4.4.4.i.i.4.4.4.i.t.4.e.4.3.w.d . . . . . . . . . . . . o 5 R 6 T T T T ^ } ^ ) / / T / T T 2 q . . . . . . . . . . . . . O h t.1.4.t.t.q.z d 2.d l y.t.q.w.w.q.3 . . . . . . . . . . . . . . _ 2X2X2X<X2X3X2X2X2X2X4X2X2X2X1X2X2Xn . . . . . . . ",
". . . . . . . . z t.g.y.4.i.i.e.i.4.t.i.4.i.i.4.y.i.. . . . . . . . . . . . @ 6 6 ^ / T / T h.} H H T T T ^ T [ S 1 . . . . . . . . . . . . . # m 4.y.t.t.4.l d.b.h.K.n.z w.e.w.g.1.M . . . . . . . . . . . . . X =X2XfX<X3X3X3X@X=X2X2X4X2X2XfX<X2X1X(.. . . . . . . ",
". . . . . . . o y.y.t.t.4.t.e.4.4.4.4.4.4.4.i.t.g.i.$ . . . . . . . . . . . . 0 6 ^ T Z T R sX[ H Z T T T T H T / 6 $ . . . . . . . . . . . . . 3.4.t.4.2.M k #XkXkXkXfXl 1.3.M t.y.q.X . . . . . . . . . . . . X.OX2X4X2X2X1X=XB.'.<XOX2X2X2X<X2X4X2XOX' . . . . . . ",
". . . . . . . & w.w.4.4.4.4.4.2.4.4.4.3.3.4.4.4.t.4.g . . . . . . . . . . . X A Z T H 6 Z K.kX| D T ~ T H T D T T < < . . . . . . . . . . . . $ 2.4.2.1.x M z >XkXkXkXkXu.x 2.x w.3.z % . . . . . . . . . . . o > =X1X2X2X<X@XOXOXB.@XB.@X2X2X=X2X2X1X(.- . . . . . . ",
". . . . . . . g 2.3.2.e.4.2.c M 4.2.3.M 1.1.w.w.w.w.M . . . . . . . . . . . # 7 Z H H 6 ! aXkXb.6 R b./ Z H D H H 7 > . . . . . . . . . . . . d x 1.4.1.z r.d.yXkXkXkXjX/.M c z 4.2.d $ . . . . . . . . . . . . @ OX1X2X=X{.{.%X>Xm.{.].].=XOX=X+X2X<X(.o . . . . . . ",
". . . . . . . k 2.w.1.q.4.l j M 3.>.1.M q.f c c 3.w.` % . . . . . . . . . . 7 5 Z H T 6 K.kXkX$X7 h #Xh.6 Z 6 H T S > . . . . . . . . . . . . m z c 4.4.n j.).;XkXkXkXzX.Xd.m r.4.1.& . . . . . . . . . . . . . # ).1X=X=Xm.%XlXdX{.m.:X;X+XB.<X_.=X@X/.X . . . . . . ",
". . . . . . o $ q.3.x >.x l d.y.x l r.d.).M z f 1.3.* $ . . . . . . . . . . # 5 6 H / ~ #XlXkXzX] w kX$X' ~ < H H   2 . . . . . . . . . . . X O z z 3.r./..X#X;XkXkXkXlXXX XI.h.3.z % . . . . . . . . . . . . . . n.@X{.B.(.zXjXlXdXN.kXjXzX;X].B.+X{.] . . . . . . . ",
". . . . . . . & 1.q.j f ~ g X.n.j d d.b.' ( ] 3 g.] d . . . . . . . . . . . o 5 q D Q h...) I.lXP.R lXL.~ ( 7 H Z   2 . . . . . . . . . . . . . g j 2.j.0XT.Y.yXaXkXlXaXE.Y..XL.2.j o . . . . . . . . . . . . . . $ M.m._.L.} X.$XhXaXkX;X .( b._.].n.- . . . . . . . ",
". . . . . . . k m n.k b.rX5.S.yXh.X.#X.XE S.W.k _.n.d o . . . . . . . . . . o 9 # < A W.W.E Y.lXkXL.gXL.E Y.K.Z 5 , ; . . . . . . . . . . . . . - g M P.iXqX}.MXyXaXyXBXqX}.vX.Xq.r.X . . . . . . . . . . . . . . . K.B._.E.S.5.yXjXkXkXzXh.E xXn.OX(.. . . . . . . . ",
". . . . . . . @ g $Xn.aXBXtXpXkX;X$XkXkXtXiXqXu.uXh.d . . . . . . . . . . . o 2 9 [ 7 aXVX8XlXkXzXjXjXVX8XgX$X^ | 5 Q . . . . . . . . . . . . . o 3 z  XFXNXbXBXaXzXaXBXNXbXBXiXM r.. . . . . . . . . . . . . . . . b.>X].kXiXtXkXjXfXkXVXbXoXVX*X;XP.. . . . . . . . ",
". . . . . . . . . n >XdXkXkXkXkX:XlXkXkXkXkXzX].I.$ $ o . . . . . . . . . . . X  .R.Q $XVXkXkXkX,XkXkXkXkXkXK.) T.) o . . . . . . . . . . . . . . @ j j.BXBXBXVXyX,XaXgXBXBXBX.Xc * . . . . . . . . . . . . . . . . X $X*XkXkXkXjXhX;XkXkXkXkXkX-X5X1 . . . . . . . . ",
". . . . . . . . . . h /.kXkXkXkX:XlXkXkXkXkXyXf.o . . . . . . . . . . . . . . . ! ) 1 I.kXkXkXkX;XkXkXkXjXjXb.) ) q . . . . . . . . . . . . . . . o l d.#XyXrXyXlX;XjXyXyXyXyXj.x $ . . . . . . . . . . . . . . . . . X h.hXkXkXkXhX;XkXkXkXkXkXn.3 . . . . . . . . . ",
". . . . . . . . . . . m jXkXkXkXkXkXkXkXkXkXP.. . . . . . . . . . . . . . . . . + , ) ' kXkXkXkXaXaXkXkXkXjXh / < o . . . . . . . . . . . . . . . . d z ).jXkXkXkXkXkXkXkXkXyX] x O . . . . . . . . . . . . . . . . . . . .XkXkXkXkXkXkXkXkXkXzX. . . . . . . . . . . ",
". . . . . . . . . . o & L.kXkXzXzXlXaXkXkXzXx X . . . . . . . . . . . . . . . . . > } , #XkXkX].l.l.XXkXkX#X, ) # . . . . . . . . . . . . . . . . . 3 j X.hXkXkXlXjXlXjXkXhX/.` l o . . . . . . . . . . . . . . . . . . . ~ jXkXkXjXjXjXkXkXkXX.. . . . . . . . . . . ",
". . . . . . . . . . . # g I.kXkXkXfXkXkXaX] w . . . . . . . . . . . . . . . . . . . o X ! .XVXoX[.'.>XkXP.9 o o . . . . . . . . . . . . . . . . . . * z   s.yXVXVXfXkXkXhXL.  ` d . . . . . . . . . . . . . . . . . . . . . _ dXkXkXlXkXkXkXh.. . . . . . . . . . . . ",
". . . . . . . . . . . . % o n.uXkXkXfX*Xn + . . . . . . . . . . . . . . . . . . . . . . X 1 ].dX>X:XsX].w + . . . . . . . . . . . . . . . . . . . . O ~     ` %XfXjXjX3X_.R   ~ & . . . . . . . . . . . . . . . . . . . . . . _ -XjXkXjX:XM.. . . . . . . . . . . . . ",
". . . . . . . . . . . . . . g.~.[.-X'.`.j . . . . . . . . . . . . . . . . . . . . . . . . # ^.`.*X*X`.`.> . . . . . . . . . . . . . . . . . . . . . . 3       ~.'.-X+X~._.    4 . . . . . . . . . . . . . . . . . . . . . . . k N.[.-X[.~.M.. . . . . . . . . . . . . ",
". . . . . . . . . . . . . < XX'.`.`.'.'.L.X . . . . . . . . . . . . . . . . . . . . . . . .._.`.~.`.'.{.H.. . . . . . . . . . . . . . . . . . . . O u b s s b ~.~.~.`.'.j.p s = = = o . . . . . . . . . . . . . . . . . . . o T.'.`.~.`.'.XX5 . . . . . . . . . . . . ",
". . . . . . . . . . . . ; Q.XXsX[.'.[.[.9X{ + . . . . . . . . . . . . . . . . . . . . . @ E.%X:X'.[.[.[.0X2 . . . . . . . . . . . . . . . . . . o *.y p p t ` >X&X'.'.[.m.f i p u &.t o . . . . . . . . . . . . . . . . . o ! qXuX&X'.[.[.XXQ.X . . . . . . . . . . . ",
". . . . . . . . . . X K P nXyXjXjXdX&X[.rXU.C ; . . . . . . . . . . . . . . . . . . 1 T.vXSX#XkXfX:X+XoXxX6XR.0 . . . . . . . . . . . . . . . O u =.u p r.XX:XuXkXfX>X*X[.[.M.v r o.=.y . . . . . . . . . . . . . . . X A 0XmXMXsXhXdX>X[.#XeXwX .+ . . . . . . . . . ",
". . . . . . . X e K P Y Z.DXMXaXhXfXsXuXCXcXV U F K ; X o . . . . . . . . . o 1 H.0XSXDXAXDXbXhXhXdX:XyXSXnXnXnX0XJ.A X . . . . . . . . . o . = y $.%.i j.hXhXdXfXfXsX:X&X*XuXq.y =.+.@.O . . . . . . . . . . o X , 8 q | FXAXDXyXhXfXsX>XMXAXcXJ.5 5 < @ o . . . . . ",
". . . o ; K P Y Y Y Y Y 7XDXSXgXuXuX&XNXDXDXZ.Y I I W I G B ; . . . . $ | E.mXDXDXDXDXDXDXDXmXsXsX:X>XGXDXSXAXDXDXDXDXAX0X .2 . . . . . = t o.+.+.#.%.%.>.,XdXuXsX3X:X&X&X-XF.O.$.$.a +.+.#.t o . . . . . w 1 0 A A A A A mXDXDXmXsX3X:XuXSXDXCXH.A A A A A 8 Q @ . . ",
". . ; G Y Y Y Y Y I Y W 6XeXXX}.*X&X-X XeXwXQ.Y Y I Y Y Y Y Y V X o  .MXDXDXDXDXDXDXDXAXZXcX}.,X&X&XoXW.eXnXCXDXDXDXDXDXDXDXmXK.X . o u *.=.=.=.&.%.O.O.+.<.(.uX>X&X&X-X>XM.*.O.$.=.o.+.=.=.=.%.t o . , T.mX( A A A A A 0 0XnXwXJ.>X&X&XW.0XxXZX) A A R A q q E.rX) . ",
". e Y Y Y Y Y Y I Y Y Y W vXGXoXgXhXNXtXSX7XI Y Y Y I Y Y Y Y Y I Q.DXDXDXDXDXDXDXDXDXSXAXCXpXpXfXhXiXiXCXDXSXDXDXDXDXDXDXDXDXDX0XO @.=.=.=.=.=.$.%.=.&.O.a >.p.).fXyXM.a.@.+.=.=.=.%.=.=.=.=.=.$.t , eXDXSX( q A A A A 0 J.CXSXT.MXjXgX0XDXnXAXA A A A A 9 0 0XDXDX| ",
". P Y Y Y Y Y Y P P Y Y { vXSX8X!.].F.SXSXwXY Y Y U I Y Y Y Y Y W ZXDXDXDXDXDXDXDXDXDXDXDXCXDX^.|.!.|.DXSXDXDXDXDXDXDXDXDXDXDXDXAXd.$.=.=.=.=.=.=.&.+.+.o.y >.e.+.<.+.+.j.>.a +.*.%.=.=.=.=.=.=.$.@.K.SXDXSX) 0 0 A A A 0  .DXAXMXJ.$XK.wXSXDXE.A A A A A 0 9 0XDXSXAX",
"o Y I Y Y Y Y Y I P Y Y V.SXSX8X7.8.z.DXDXxXY Y Y U Y Y Y Y Y Y C.DXSXDXDXDXDXDXDXDXDXDXDXDXDXD.7.7.|.DXDXDXDXDXDXDXDXDXDXDXDXDXDXx.$.=.=.=.=.=.=.=.=.=.=.&.<.a.&.=.=.=.x.%.-.=.=.=.=.=.=.=.=.=.$.,.iXFXDXSX( 8 A A A A A ! vXSXSX( q ! MXDXDX..A A q A A q 7 $XDXDXDX",
"X Y I Y Y Y Y I Y Y Y Y V.SXDXbX9.8.|.DXDXcXY Y Y Y I Y Y Y Y I U.DXSXDXDXDXDXDXDXDXDXDXDXDXDXpX7.7.pXDXDXDXDXDXDXDXDXDXDXDXDXDXDXl.=.=.=.=.=.=.=.=.=.=.=.=.-.p.=.=.=.=.j.=.=.=.=.=.=.=.=.=.=.=.=.-.tXDXSXSX/ 9 A A A A A q E.SXDX .Q [ AXDXSX! A A A A A A 9 0XDXSXDX",
"+ Y Y I Y Y Y Y I Y Y Y V.DXDXDXc.v.tXDXDXcXY Y Y Y I Y Y Y Y Y U.DXDXSXDXDXDXDXDXDXDXDXDXSXDXSXv.<.SXDXDXDXDXDXDXDXDXDXDXDXSXDXDXl.=.=.=.=.=.=.=.=.=.=.=.=.-.p.O.+.&.=.x.=.=.=.=.=.=.=.=.=.=.&.=.-.tXDXDXFX! 0 A A A A A A H.SXDXJ.5 K.DXDX0XA A A A A A A 9 0XSXDXDX",
"X Y Y I I Y Y Y P Y Y Y V.SXDXDXz.9.8XDXDXxXY Y Y Y P Y Y Y I I U.DXDXSXDXDXDXDXDXDXDXDXDXDXAXNX7.9.CXSXSXDXDXDXDXDXDXDXDXDXDXSXDXl.=.=.%.=.=.=.=.=.=.=.=.=.=.p.=.%.=.=.x.=.=.=.=.=.=.=.=.=.&.=.*.-.tXDXDXCX( q A A A A A A ) mXCXH.9 H.DXSXH.A A A A A A A 9 wXDXSXDX",
"+ Y Y I F Y Y Y I Y Y Y V.SXDXNX9.7.oXDXDXeXY Y Y Y Y Y Y I U L U.DXDXSXmXDXDXDXDXDXDXDXDXDXDXqX7.7.iXAXDXDXDXSXSXSXDXDXDXmXCXSXFXp.=.=.O.%.=.=.=.=.=.=.=.=.=.p.=.=.=.=.p.=.=.=.=.=.=.=.=.=.+.O.$.,.iXDXSXZX) q A A A A A A A E.SX..A | nXmXQ A A A A A A A 0 0XCXDXSX",
"o Y Y U C I Y Y I Y Y Y W DXDXbX8.7.|.DXDXwXY Y Y Y f.' { V U Y U.DXDXnXwXDXDXDXDXDXDXDXDXDXDX8X7.7.oXDXDXDXDXSXDXDXDXAXDXcXCXDXSXp.=.=.y #.=.=.=.=.=.=.=.=.=.p.=.=.=.=.p.=.=.=.=.=.=.=.=.=.a &.-.,.iXDXDXxX) A A A A A A A 0  .SX[ A / nXE.A A A A A A A q 0 0XSXDXmX",
". Y Y I V I Y Y P I Y Y Y DXDXpX7.8.D.DXDX6XY Y Y P s.s.{ U Y Y R.SXDXDX6XDXDXDXDXDXDXDXDXDXDX|.7.7.|.DXDXSXFXgXOXgXBXAXDXmXDXDXAXj.=.=.+.y =.=.=.=.=.=.=.=.=.l.=.=.=.=.p.=.=.=.=.=.=.=.=.=.&.=.=.,.rXDXDXCX..q A A A A q q 0 Q 6X/ A Q wX..A A A A A A A q Q nXDXDXnX",
"o Y Y Y L L Y Y I P Y Y Y mXDXpX7.7.z.DXSX7XY Y Y _ s.f.{ L Y Y Q.DXDXDXnXSXDXDXDXDXDXDXDXDXDXD.7.7.|.DXDXSXzXOX@X5XzXFXDXmXDXSXnXp.=.=.=.#.=.=.=.=.=.=.=.=.=.p.=.=.=.=.p.=.=.=.=.=.=.=.=.%.&.=.=.>.mXDXDXDXH.q A A A A 5 0 q 9 C.Q A 0 U.q 0 A A A A A A q ) SXDXAXwX",
". P Y Y L F Y Y Y L Y Y Y cXDX8X7.7.z.DXDXQ.Y Y Y ' f.s.Y U Y Y wXDXDXDXCXCXDXDXDXDXDXDXDXDXDXc.7.7.|.DXDXSXlXOXOXB.gXDXAXAXDXAXSX X=.=.=.y %.=.=.=.=.=.=.=.-.p.=.=.=.=.p.=.=.=.=.=.=.=.=.+.=.=.=.2.CXDXDXDXQ.9 A A A A 9 8 0 8 Q A A 0 [ 9 q q A A A A A 9  .DXSXSXAX",
". G Y Y U C L Y Y F Y Y I wXDXoX7.7.z.SXDXU.Y Y I / f.{ U F Y { nXSXDXDXZXxXDXDXDXDXDXDXDXDXDXz.7.7.^.DXDXSXSX%XOX%XAXDXvXSXDXDXDXqX$.=.=.a y =.=.=.=.=.=.=.,.a.=.=.=.=.p.=.=.=.=.=.=.=.&.;.=.=.=.6.nXDXDXDXwX5 q A A A 0 q 9 8 8 5 A 1 9 1 0 A A 9 A A q 1 J.DXDXDXDX",
". N I Y U C V F I F P Y Y 7XDX|.7.7.7.AXDXC.Y Y U P P F C V I V.AXDXDXDXvXwXnXSXDXDXDXDXDXDXDXz.7.7.D.DXDXDXAXgX=XlXAXAXwXCXSXDXDX9Xo.=.$.i i #.=.=.=.=.=.=.<.p.=.=.=.=.p.=.=.=.=.=.=.%.;.p %.%.=.>.MXSXDXDXxXQ 1 0 A A A q 0 1 5 1 1 1 5 1 A A 9 9 A q 5 1 R.AXDXDXSX",
". B V L V N B C V V V I W G.DX!.7.7.0.GXSXV.I I C V V C B C C Y eXDXDXSXvXR.xXcXZXSXDXDXDXDXDX0.7.7.c.SXDXDXDXSXSXCXZXxXR.xXCXDXDXXXi ;.O.i r p a O.&.=.=.=.j.<.-.=.=.=.k.-.=.=.=.:.O.a r i i ;.a v mXSXSXCXvX/ < 1 8 0 q q q 8 1 1 # 5 , 8 0 8 9 q 8 5 1 < 6XvXSXDXDX",
". B B N N N : N C C B F V W SXx.8.8.:.nXwXF C B C C C B : C C C N H.yXiXqXY.6XcXcXvXnXZXCXZXZX<.7.9.a.nXZXZXZXnXvXvXcX7XY.qXgXpXyXqXp p i i r p i i i a a a a a a a i a h.a ;.;.;.i i i t i i i i x mXSXmXvXcX) , < 1 1 1 5 8 5 , < 4 4 , 8 5 5 1 1 2 2 < , 7XZXDXDXAX"
};
