/* XPM */
static char *result[] = {
/* columns rows colors chars-per-pixel */
"37 50 55 1 ",
"  c #4F2913",
". c #522B14",
"X c #542F18",
"o c #573017",
"O c #553119",
"+ c #5B341B",
"@ c #5D381E",
"# c #60391D",
"$ c #5D3A21",
"% c #613E23",
"& c #72751B",
"* c #5A4432",
"= c #634126",
"- c #684326",
"; c #644529",
": c #69462A",
"> c #664A2D",
", c #6B4A2D",
"< c #6B4E31",
"1 c #634E3C",
"2 c #714F33",
"3 c #6C5033",
"4 c #64513E",
"5 c #725334",
"6 c #725638",
"7 c #765A3B",
"8 c #795C3D",
"9 c #695542",
"0 c #6B5846",
"q c #6E5D4A",
"w c #705C47",
"e c #7B5F40",
"r c #715E49",
"t c #7D6243",
"y c #74614D",
"u c #766653",
"i c #786651",
"p c #7D6852",
"a c #7C6D5B",
"s c #7E705F",
"d c #806646",
"f c #816749",
"g c #846A4A",
"h c #886F4F",
"j c #886F50",
"k c #8C7354",
"l c #81705D",
"z c #8F7758",
"x c #917856",
"c c #937B5B",
"v c #857562",
"b c #8B7B66",
"n c #978164",
"m c #9D8664",
"M c #9E8768",
/* pixels */
"&&&,ktt+&&&&&&&&&&&&&&&&&&&&&,xgg2&&&",
"&&<xgg3+&&&&&&&&&&&&&&&&&&&&&,txkk2&&",
"&&,xgj3+&&&&&&&&&&&&&&&&&&&&&:txjj2&&",
"&&,xgg3O&&&&&&&&&&&&&&&&&&&&&:dmxz2&&",
"&,cjkk3O&&&&&&&&&&&&&&&&&&&&&,dmxxz,&",
"&,czk<<O&&&&&&&&&&&&&&&&&&&&&:edmcz2&",
"&;nzx33O&&&&&&&&&&&&&&&&&&&&&:deMcc,&",
"&;czx<3o&&&&&&&&&&&&&&&&&&&&&:ddMcc:&",
"&,Mzz3<X&&&&&&&&&&&&&&&&&&&&&,ddMcc,&",
"%bkzk<<X&&&&&&&&&&&&&&&&&&&&&:ddMccc-",
",czk3<,.&&&&&&&&&&&&&&&&&&&&&:eddMcc-",
"%bkz<2<X&&&&&&&&&&&&&&&&&&&&&%dddMcc%",
":ckj2<,X&&&&&&&&&&&&&&&&&&&&&:fdtmxz%",
"%Mjj<X,.&&&&&&&&&&&&&&&&&&&&&:d2dmkz#",
":bjjX9XX&&&&&&&&&&&&&&&&&&&&&,%c,mkh@",
"%%%+X;X.&&&&&&&&&&&&&&&&&&&&&%%f:---@",
"%bvl9.<.&&&&&&&&&&&&&&&&&&&&&%8%vnbv@",
"%rri1.<.&&&&&&&&&&&&&&&&&&&&&%d#tpai@",
"%rrr ,:.&&&&&&&&&&&&&&&&&&&&&#d8#pgp@",
"%oX.,,<.&&&&&&&&&&&&&&&&&&&&&#dd7+@++",
"%2,,<<> &&&&&&&&&&&&&&&&&&&&&#detg75+",
"%gte,,>X&&&&&&&&&&&&&&&&&&&&&#detkgg+",
"%fet%1.9 &&&&&&&&&&&&&&&&&&&#v#etkggO",
"$get2%.% &&&&&&&&&&&&&&&&&&&+f#eextto",
"$f77>; * &&&&&&&&&&&&&&&&&&&#y+d8ktto",
"$fe7;;.* &&&&&&&&&&&&&&&&&&&+d+58kteo",
"$fe7;; *.&&&&&&&&&&&&&&&&&&&+y+d8hteo",
"$t77;;;O&&&&&&&&&&&&&&&&&&&&&+527h8e.",
"$t77;;= &&&&&&&&&&&&&&&&&&&&&+556h88.",
"$t87;$= &&&&&&&&&&&&&&&&&&&&&o555h88X",
"$t76=*= &&&&&&&&&&&&&&&&&&&&&o555g77.",
"$t63=$= &&&&&&&&&&&&&&&&&&&&&+2%3p76 ",
"Ot66=.= &&&&&&&&&&&&&&&&&&&&&.@a@t77.",
"Xt66.4  &&&&&&&&&&&&&&&&&&&&&.@0Og66.",
" +$O.*  &&&&&&&&&&&&&&&&&&&&&.;+u.o  ",
" sss4.$ &&&&&&&&&&&&&&&&&&&&&.,o0sss.",
" qyw*  4 &&&&&&&&&&&&&&&&&&& a =+www.",
" qww.@ * &&&&&&&&&&&&&&&&&&& 4.<+www.",
"    @@ * &&&&&&&&&&&&&&&&&&& 4 >=.   ",
" ,,,@ 4* &&&&&&&&&&&&&&&&&&& 4q ,5<< ",
" t66@ ** &&&&&&&&&&&&&&&&&&& 49 >t66 ",
" t36+ * &&&&&&&&&&&&&&&&&&&&& 0 <t66 ",
" w66 4* &&&&&&&&&&&&&&&&&&&&& 9s t66 ",
"     ** &&&&&&&&&&&&&&&&&&&&& 0q     ",
" uuu4* &&&&&&&&&&&&&&&&&&&&&&& qsuqy ",
" y00** &&&&&&&&&&&&&&&&&&&&&&& qs699 ",
" u00** &&&&&&&&&&&&&&&&&&&&&&& qs994 ",
" u00* &&&&&&&&&&&&&&&&&&&&&&&&& s999 ",
" q00* &&&&&&&&&&&&&&&&&&&&&&&&& s499 ",
" y00* &&&&&&&&&&&&&&&&&&&&&&&&& a994 "
};
