/* XPM */
static char *result[] = {
/* columns rows colors chars-per-pixel */
"37 50 19 1 ",
"  c #72751B",
". c #E5D972",
"X c #B29547",
"o c #9A8937",
"O c #AF7F60",
"+ c black",
"@ c #E4C094",
"# c #44001B",
"$ c #69775D",
"% c #141728",
"& c #790C25",
"* c #37435C",
"= c #63788E",
"- c #71664F",
"; c #575E38",
": c #947B41",
"> c #DCD0B8",
", c #AA222B",
"< c #993B26",
/* pixels */
"                                     ",
"                                     ",
"                                     ",
"                                     ",
"                                     ",
"                                     ",
"                                     ",
"                                     ",
"                                     ",
"                                     ",
"                .....                ",
"               .X.....               ",
"               o.X.OO.               ",
"               oX.+O+.               ",
"               oO.@@@                ",
"               #O@@@@                ",
"              ###O@@#   +++++$       ",
"             %%##OO@&$ +++++++$      ",
"            ##%#&#OO&#$+++++++$      ",
"           ###&%#&#O#&*+%%%%*+$      ",
"           ##&&%%#&&&#=#++%+++$      ",
"          ##&&%%%%###%*###O+++$      ",
"          ##&-%%%%%%%;####O+++$      ",
"          #&&--%%%**;  +++%+++;      ",
"        ++#&--+%%**=$  +%%%%*+$      ",
"         +OO++-%%*==;  +++++++;      ",
"          :++--&#&&&&  +++++++;      ",
"          +++>-##&#&&   +++++;       ",
"          + >>>%#&#&*;               ",
"         +   >>>###&*=$              ",
"             ;>>>&#&**=$             ",
"            &&%>>>##%**&&            ",
"           &,&%%>>>&%%#&<            ",
"           &&## #>>>-#%&&            ",
"           ;%%  # >>>%%;             ",
"          &#%   # #>>>;              ",
"         &##        >>>              ",
"         ##        ##>>>             ",
"        &#         #&->>>            ",
"       &##         ##& >>>           ",
"                                     ",
"                                     ",
"                                     ",
"                                     ",
"                                     ",
"                                     ",
"                                     ",
"                                     ",
"                                     ",
"                                     "
};
