/* XPM */
static char *result[] = {
/* columns rows colors chars-per-pixel */
"37 50 51 1 ",
"  c #4C2711",
". c #4E2812",
"X c #4F2D1A",
"o c #512C16",
"O c #502E1A",
"+ c #51311D",
"@ c #5A371E",
"# c #5B381F",
"$ c #533421",
"% c #593622",
"& c #5C3C26",
"* c #573E2E",
"= c #5E3E29",
"- c #72751B",
"; c #5F402D",
": c #61422E",
"> c #614533",
", c #634836",
"< c #644A38",
"1 c #5A4E42",
"2 c #5E5246",
"3 c #5F5449",
"4 c #62574C",
"5 c #645A4F",
"6 c #645C51",
"7 c #676056",
"8 c #686156",
"9 c #676158",
"0 c #6B645B",
"q c #6E685E",
"w c #716256",
"e c #6F6A60",
"r c #726D63",
"t c #777066",
"y c #7A7267",
"u c #757269",
"i c #7B766B",
"p c #7E796E",
"a c #7E7A71",
"s c #80796F",
"d c #807C74",
"f c #848277",
"g c #868478",
"h c #89877A",
"j c #8A887A",
"k c #8D8B82",
"l c #918F86",
"z c #96938B",
"x c #99968E",
"c c #9D9991",
"v c #A09C94",
/* pixels */
"---->>>>>>>,,,<,<<<,<<<<<<,,>,>>>----",
"---&kkkkkjffffffffffffffhdfffffdk&---",
"--&kkkkkkfffffffffffffdfdffffffffk&--",
"-&kfffffffffffffffffffgffkkkfffffgj;-",
">kffffffgfffffffffkkdfdhdkklfggdfffk:",
";kfffffd55667080000000q6qe666gggfffj&",
">kfffff4&&&;;;;;*;==;;;;====*4ffffgj&",
";kgfff3%w8tttttturtttttttwww6%4gffgj;",
":kggff@wwttttttttttttttyttttww%dggfz:",
":lfggg@wttttttttiitttttiitttyy#hggfj&",
":lgggg#8ittttiiiiiitiiiipyyyyy#ggggx:",
";lgggg#iiiittipiipiiiiipiyyyyy#ggggx&",
":lgggg#iiipiuiiiiiiiypiipyyiyy#fgggx=",
":zgggg#ippppppappppppapppyypyy#fgggj=",
":zggjg#ipppppppppppppppppyyyyy#hggjz=",
":xgggg#ppppppppppppppspsspyiyy#ggggc=",
"=zgggh@ssssssssspsppspspsapyii%lggjx:",
":xjhhh@ssss60ssspspfsspsdpdpiy@ljggx&",
"=xkkhhh@aaww00wwfppp00wsapapi@jljgjc:",
"=vlkhghh%%@%%%%%@###########%klkgjjc&",
"=vllhhhhhhhhhkhhjjgjjjhjjjjjllhhjjjx;",
"=svhjhhhhhhhhhhhgjjjhjhhjjjjhhhhjjz8O",
":syvhhhhhhhhhhhhjjjjhhhjhjhhhhhhjc88O",
"@yydvvvxvxxvzzzzzzzzzzzzzxxzxxxxc868O",
"%uuzquuutteeeeeeqsssqeqqypqqeqeqef96X",
"%ik0quu0qqe0qq0qqqqqqqqqqqqqqqe00ed7 ",
".deq0e0q0eqeqqqqqqqqqqqqqqqqqqe0e00dX",
".fq0000qq0qeqqqqqqqqqqqqqqqqqerr000f ",
" a6e000e$$$$$$X%X++X$X+$+O++Oerre00dX",
"Xaeee00$115555565666555666665%rr000u ",
" ie600X11556556665695w66666666$e000u ",
" i6000O155w5556665w665665w6666$0000u ",
" i0900O26656656666636666646666+0000r.",
" u9090$45465555566666666645665+0000r.",
" u9999$32365555533636553255545$8888u.",
" u9999X32365556563365555544454$8988r ",
" e0696X34245565533636663524425+8989r.",
" u6e6e$32465555563363666555455+8889u.",
" u96e6$32455555536366663244445@8880rX",
" e6966$34245555536336363554444o8989r ",
" e6776+22224245436336636633332$7999r.",
" e9776+22224444463333363333332$6699r.",
" r9766e$12244444133-636123132*97666r.",
" e96666u$OOOOOOOXX$$XXXXXXX+$966696r.",
" e996666reerrqqtrrrrrrrrerrrr666666e.",
" e0009666666500897e7e77779666666666e.",
"- 009066666666576677666667666666660X-",
"-- 0766366636655666666666666666660 --",
"--- 06666666666636666666366666660 ---",
"----                             ----"
};
